<?xml version="1.0" encoding="UTF-8"?>
<svg id="Layer_1" data-name="Layer 1" xmlns="http://www.w3.org/2000/svg" viewBox="0 0 2709 1000">
  <defs>
    <style>
      .cls-1, .cls-2 {
        fill-rule: evenodd;
      }

      .cls-1, .cls-3 {
        fill: #ff931e;
      }

      .cls-4, .cls-2 {
        stroke: #ff931e;
        stroke-width: 12px;
      }

      .cls-4, .cls-2, .cls-5, .cls-6 {
        fill: none;
        stroke-miterlimit: 10;
      }

      .cls-7 {
        fill: #0071bc;
      }

      .cls-5 {
        stroke: #000;
      }

      .cls-5, .cls-6 {
        stroke-width: 20px;
      }

      .cls-8 {
        fill: #fff;
        font-size: 268.56px;
      }

      .cls-8, .cls-9 {
        font-family: CascadiaMono-Regular, 'Cascadia Mono';
        font-variation-settings: 'wght' 400;
      }

      .cls-9 {
        font-size: 501.31px;
      }

      .cls-6 {
        stroke: #fff;
      }
    </style>
  </defs>
  <text class="cls-8" transform="translate(592.32 385.73)"><tspan x="0" y="0">INVESTIGACIÓN</tspan></text>
  <text class="cls-9" transform="translate(580.66 756)"><tspan class="cls-3" x="0" y="0">UR</tspan><tspan class="cls-7" x="587.48" y="0">GENTE</tspan></text>
  <path class="cls-3" d="M490.39,233.87c6.65,0,12.68,2.7,17.04,7.06l.16.17c4.27,4.35,6.9,10.31,6.9,16.87,0,5.2-1.66,10.03-4.48,13.98-2.63,3.69-6.28,6.6-10.52,8.34l-6.43,17.01c-.55,1.47-2.2,2.22-3.67,1.67-.8-.3-1.39-.92-1.67-1.67l-6.44-17.01c-4.24-1.73-7.88-4.65-10.52-8.34-2.82-3.95-4.48-8.78-4.48-13.98,0-6.65,2.7-12.67,7.06-17.03,4.37-4.37,10.4-7.07,17.04-7.07ZM382.94,309.03c-1.58,0-2.86-1.28-2.86-2.86s1.28-2.86,2.86-2.86h41.95l7.64-69.96c.17-1.56,1.57-2.7,3.14-2.53,1.56.17,2.7,1.57,2.53,3.14l-7.9,72.33c-.06,1.52-1.32,2.74-2.86,2.74h-44.51ZM450.97,235.37c.17-1.56,1.57-2.7,3.14-2.53,1.56.17,2.7,1.57,2.53,3.14l-7.35,67.34h99.47c1.58,0,2.86,1.28,2.86,2.86s-1.28,2.86-2.86,2.86l-102.95-.02c-1.56-.17-2.7-1.57-2.53-3.14,0,0,7.7-70.5,7.7-70.5ZM548.76,321.86c1.58,0,2.86,1.28,2.86,2.86s-1.28,2.86-2.86,2.86h-28.56v53.37c0,1.58-1.28,2.86-2.86,2.86s-2.86-1.28-2.86-2.86v-56.22c0-1.58,1.28-2.86,2.86-2.86,0,0,31.42,0,31.42,0ZM501.65,380.94c0,1.58-1.28,2.86-2.86,2.86s-2.86-1.28-2.86-2.86v-53.37h-49.29l-5.86,53.67c-.17,1.56-1.57,2.7-3.14,2.53s-2.7-1.57-2.53-3.14l6.12-56.04c.06-1.52,1.32-2.74,2.86-2.74h54.7c1.58,0,2.86,1.28,2.86,2.86v56.22ZM422.34,379.23c-.17,1.56-1.57,2.7-3.14,2.53s-2.7-1.57-2.53-3.14l5.58-51.05h-39.3c-1.58,0-2.86-1.28-2.86-2.86s1.28-2.86,2.86-2.86l42.78.02c1.56.17,2.7,1.57,2.53,3.14l-5.92,54.21ZM503.38,244.97c-3.32-3.32-7.92-5.38-13-5.38s-9.68,2.06-13,5.38c-3.32,3.32-5.38,7.92-5.38,13,0,3.98,1.26,7.67,3.4,10.67,2.2,3.08,5.34,5.46,9.01,6.72.77.27,1.43.87,1.74,1.7l4.23,11.17,4.16-11.01c.26-.84.9-1.55,1.8-1.86,3.66-1.26,6.81-3.64,9.01-6.72,2.14-3,3.4-6.69,3.4-10.67,0-5.01-2-9.55-5.24-12.87,0,0-.14-.13-.14-.13ZM490.39,246.56c3.14,0,5.99,1.28,8.05,3.34,2.07,2.08,3.35,4.93,3.35,8.06s-1.28,5.99-3.34,8.05c-2.08,2.07-4.92,3.35-8.06,3.35s-5.99-1.28-8.05-3.34c-2.07-2.08-3.35-4.93-3.35-8.06s1.28-5.99,3.34-8.05c2.08-2.07,4.93-3.35,8.06-3.35ZM494.41,253.94c-1.03-1.02-2.45-1.66-4.02-1.66s-3,.64-4.03,1.66c-1.02,1.03-1.66,2.45-1.66,4.03s.64,3,1.66,4.03c1.02,1.02,2.45,1.66,4.03,1.66s3-.63,4.02-1.66c1.02-1.02,1.66-2.45,1.66-4.03s-.63-3-1.66-4.03Z"/>
  <path class="cls-1" d="M312.73,669.72c-11.71,9-21.85,19.72-27.03,36.15-.46,1.45-2.01,2.26-3.47,1.81-1.45-.46-2.26-2.01-1.81-3.47,5.56-17.65,16.39-29.18,28.94-38.84-5.85-8.68-8.75-19.89-6.99-32.99,3.14-23.38,17.87-33.23,37.01-39.65,17.99-6.03,40.01-8.93,59.02-18.5.96-.48,2.1-.37,2.95.29.84.66,1.23,1.74,1,2.79-4.51,20-2.92,42.88-5.82,62.28-3.08,20.58-11.05,37.35-34.85,43.79-18.43,4.99-37.44-.58-48.96-13.64h.01ZM317.3,666.34c10.2,11.27,26.83,16.03,42.94,11.67,21.22-5.74,28.08-20.91,30.82-39.27,2.66-17.79,1.59-38.49,4.82-57.24-18.03,7.88-38.07,10.87-54.73,16.46-17.07,5.73-30.48,14.28-33.29,35.14-1.54,11.45.96,21.27,6.05,28.88,3.11-2.24,6.3-4.39,9.52-6.54-1.4-9.28-1.25-9.65-3.16-19.8-.28-1.5.71-2.95,2.21-3.23,1.5-.28,2.95.71,3.23,2.21,1.74,9.23,1.79,10.44,2.81,17.45,8.29-5.49,16.55-11.07,23.81-17.91-1.27-7.61-2.26-7.77-4.8-19.64-.32-1.49.63-2.97,2.12-3.29,1.49-.32,2.97.64,3.29,2.13,2.05,9.61,3.09,11.66,4.08,16.01,5.25-5.79,9.76-12.5,13.08-20.66.57-1.42,2.19-2.1,3.61-1.52,1.42.57,2.1,2.19,1.53,3.61-3.46,8.51-8.12,15.55-13.55,21.64,4.39.12,10.48.22,18.6-.56,1.52-.15,2.87.97,3.02,2.49.15,1.52-.97,2.87-2.49,3.02-12.6,1.22-20.33.32-24.37.46-6.88,6.53-14.6,11.98-22.44,17.23,7.79,1.2,11.27.73,22.12,2.44,1.51.24,2.54,1.65,2.3,3.17-.24,1.51-1.65,2.54-3.16,2.3-13.23-2.08-15.6-.98-27.92-3.48-3.38,2.25-6.75,4.5-10.03,6.85h0Z"/>
  <circle class="cls-6" cx="353.56" cy="630.46" r="98.75"/>
  <circle class="cls-6" cx="164.45" cy="677.8" r="36.92"/>
  <circle class="cls-6" cx="83.87" cy="595.95" r="36.92"/>
  <circle class="cls-6" cx="532.81" cy="595.95" r="36.92"/>
  <circle class="cls-6" cx="83.87" cy="243.41" r="36.92"/>
  <circle class="cls-6" cx="298.89" cy="243.41" r="36.92"/>
  <circle class="cls-5" cx="174.72" cy="433.09" r="98.75"/>
  <circle class="cls-4" cx="174.72" cy="417.27" r="36.92"/>
  <path class="cls-2" d="M231.31,514.54c0-32.37-26.24-58.61-58.61-58.61s-58.61,26.24-58.61,58.61"/>
  <circle class="cls-6" cx="174.72" cy="433.09" r="98.75"/>
  <circle class="cls-5" cx="470.98" cy="307.29" r="98.75"/>
  <circle class="cls-6" cx="470.98" cy="307.29" r="98.75"/>
  <line class="cls-6" x1="98.2" y1="275.91" x2="128.35" y2="338.67"/>
  <line class="cls-6" x1="266.06" y1="395.49" x2="378.85" y2="348.46"/>
  <line class="cls-6" x1="385.41" y1="536.96" x2="434.2" y2="406.29"/>
  <line class="cls-6" x1="333.12" y1="253.86" x2="378.85" y2="273.24"/>
  <line class="cls-6" x1="496.58" y1="602.98" x2="450.57" y2="611.96"/>
  <line class="cls-6" x1="200.01" y1="667.9" x2="254.8" y2="653.48"/>
  <line class="cls-6" x1="102.2" y1="563.91" x2="123.76" y2="517.7"/>
</svg>