<?xml version="1.0" encoding="UTF-8"?>
<svg id="Layer_1" xmlns="http://www.w3.org/2000/svg" version="1.1" viewBox="0 0 2709 1000">
  <!-- Generator: Adobe Illustrator 29.8.1, SVG Export Plug-In . SVG Version: 2.1.1 Build 2)  -->
  <defs>
    <style>
      .st0, .st1 {
        fill-rule: evenodd;
      }

      .st0, .st2 {
        fill: #ff931e;
      }

      .st3, .st1 {
        stroke: #ff931e;
        stroke-width: 12px;
      }

      .st3, .st1, .st4 {
        fill: none;
        stroke-miterlimit: 10;
      }

      .st5 {
        fill: #0071bc;
      }

      .st4 {
        stroke: #000;
        stroke-width: 20px;
      }
    </style>
  </defs>
  <g>
    <path d="M614.35,224.43v-24.92h113.3v24.92h-113.3ZM614.35,385.73v-24.92h113.3v24.92h-113.3ZM657.23,385.73v-186.21h27.28v186.21h-27.28Z"/>
    <path d="M769.09,385.73v-186.21h27.28v186.21h-27.28ZM852.49,385.73l-53.5-141.62h-12.06v-44.59h17.31l53.5,141.62h6.56v44.59h-11.8ZM860.36,385.73v-186.21h27.28v186.21h-27.28Z"/>
    <path d="M965.39,385.73l-52.45-186.21h28.06l43.54,163.92h2.36l43.54-163.92h28.06l-52.45,186.21h-40.65Z"/>
    <path d="M1085.38,385.73v-186.21h27.28v186.21h-27.28ZM1085.38,224.43v-24.92h123.27v24.92h-123.27ZM1085.38,304.95v-24.92h99.66v24.92h-99.66ZM1085.38,385.73v-24.92h123.27v24.92h-123.27Z"/>
    <path d="M1294.01,388.35c-10.58,0-20.48-.85-29.7-2.56-9.22-1.7-17.77-4.26-25.64-7.67l3.41-26.49c9.62,4.11,18.9,7.23,27.87,9.38,8.96,2.14,17.68,3.21,26.16,3.21,12.24,0,21.33-2.14,27.28-6.43,5.94-4.28,8.92-10.8,8.92-19.54,0-11.1-5.68-19.23-17.05-24.39l-32.26-14.69c-12.68-5.77-22.4-12.72-29.18-20.85-6.78-8.13-10.16-18.23-10.16-30.29,0-16.26,4.89-28.85,14.69-37.77,9.79-8.92,23.65-13.38,41.57-13.38,12.5,0,23.56,1.84,33.18,5.51,9.62,3.67,18.88,9.66,27.8,17.96l-18.36,18.62c-7.69-6.29-14.88-10.86-21.57-13.7-6.69-2.84-13.66-4.26-20.92-4.26-9.01,0-15.98,2.16-20.92,6.49-4.94,4.33-7.41,10.73-7.41,19.21,0,6.03,1.62,10.95,4.85,14.75,3.23,3.8,8,7.19,14.29,10.16l27.28,12.85c13.81,6.47,24.3,13.77,31.47,21.9,7.17,8.13,10.75,18.58,10.75,31.34,0,16.87-5.49,29.53-16.46,37.96-10.97,8.44-27.6,12.65-49.9,12.65Z"/>
    <path d="M1389.61,224.43v-24.92h136.38v24.92h-136.38ZM1444.16,385.73v-186.21h27.28v186.21h-27.28Z"/>
    <path d="M1558.51,224.43v-24.92h113.3v24.92h-113.3ZM1558.51,385.73v-24.92h113.3v24.92h-113.3ZM1601.39,385.73v-186.21h27.28v186.21h-27.28Z"/>
    <path d="M1785.89,388.35c-27.8,0-48.65-8-62.55-24-13.9-16-20.85-40-20.85-71.99,0-30.33,7.21-53.83,21.64-70.48s34.66-24.98,60.71-24.98c13.03,0,24.43,2.03,34.23,6.1,9.79,4.06,17,9.81,21.64,17.24l-19.54,19.41c-4.02-5.94-9.07-10.53-15.15-13.77-6.08-3.23-12.61-4.85-19.6-4.85-17.66,0-31.39,6.1-41.18,18.29-9.79,12.2-14.69,29.44-14.69,51.73,0,24.39,4.89,42.68,14.69,54.88,9.79,12.2,24.39,18.29,43.8,18.29,8.3,0,15.62-.81,21.96-2.43,6.34-1.62,11.52-2.99,15.54-4.13l10.23,22.82c-3.67,1.14-10.12,2.73-19.34,4.79-9.22,2.05-19.74,3.08-31.54,3.08ZM1773.83,317.54v-24.92h62.16v24.92h-62.16ZM1810.81,380.48v-87.86h25.96v87.86h-25.96Z"/>
    <path d="M1857.1,385.73l53.76-186.21h38.03l53.76,186.21h-27.54l-44.06-163.65h-2.36l-44.06,163.65h-27.54ZM1882.02,340.36v-24.92h94.42v24.92h-94.42Z"/>
    <path d="M2106.65,388.35c-57.88,0-86.81-32-86.81-95.99,0-30.33,7.3-53.83,21.9-70.48,14.6-16.65,35.19-24.98,61.76-24.98,12.85,0,24.04,2.03,33.57,6.1,9.53,4.06,16.48,9.86,20.85,17.38l-19.41,19.28c-3.93-5.94-8.94-10.53-15.01-13.77-6.08-3.23-12.65-4.85-19.74-4.85-16.87,0-30.4,6.08-40.59,18.23-10.19,12.15-15.28,29.42-15.28,51.8,0,48.78,21.07,73.17,63.21,73.17,12.67,0,25.18-2.62,37.5-7.87l6.03,23.08c-15.21,5.95-31.21,8.92-48,8.92Z"/>
    <path d="M2187.95,224.43v-24.92h113.3v24.92h-113.3ZM2187.95,385.73v-24.92h113.3v24.92h-113.3ZM2230.83,385.73v-186.21h27.28v186.21h-27.28Z"/>
    <path d="M2401.96,388.35c-45.81,0-68.71-31.47-68.71-94.42s22.9-97.04,68.71-97.04,68.71,32.35,68.71,97.04-22.91,94.42-68.71,94.42ZM2401.96,364.22c27.1,0,40.65-23.43,40.65-70.29s-13.55-72.91-40.65-72.91-40.65,24.3-40.65,72.91,13.55,70.29,40.65,70.29ZM2384.78,178.54l28.85-32.78h36.98l-35.41,32.78h-30.42Z"/>
    <path d="M2500.05,385.73v-186.21h27.28v186.21h-27.28ZM2583.45,385.73l-53.5-141.62h-12.06v-44.59h17.31l53.5,141.62h6.56v44.59h-11.8ZM2591.32,385.73v-186.21h27.28v186.21h-27.28Z"/>
  </g>
  <g>
    <path class="st2" d="M726.55,760.89c-74.41,0-111.62-38.84-111.62-116.52v-235.97h50.91v235.97c0,23.17,4.98,40.63,14.93,52.38,9.95,11.75,25.54,17.62,46.75,17.62,41.12,0,61.69-23.33,61.69-70.01v-235.97h50.91v235.97c0,38.84-9.63,67.97-28.88,87.39-19.26,19.42-47.49,29.13-84.69,29.13Z"/>
    <path class="st2" d="M908.67,756v-347.59h50.92v347.59h-50.92ZM956.16,623.82v-46.51h71.97c19.42,0,34.55-5.14,45.41-15.42,10.85-10.28,16.28-24.72,16.28-43.33,0-20.4-5.43-36.1-16.28-47.12-10.86-11.02-25.99-16.52-45.41-16.52h-70.99l-5.88-46.51h76.86c36.06,0,63.93,9.14,83.59,27.42,19.66,18.28,29.5,44.23,29.5,77.84s-9.83,62.01-29.5,81.27c-19.67,19.26-47.53,28.88-83.59,28.88h-71.97ZM1095.2,756l-77.84-163.51h53.85l82.74,163.51h-58.75Z"/>
    <path class="st5" d="M1339.98,760.89c-51.89,0-90.81-14.93-116.76-44.79s-38.92-74.66-38.92-134.39c0-56.62,13.46-100.48,40.39-131.57s64.7-46.63,113.33-46.63c24.31,0,45.61,3.79,63.89,11.38,18.27,7.59,31.74,18.32,40.39,32.19l-36.47,36.23c-7.51-11.1-16.93-19.66-28.27-25.7-11.34-6.04-23.54-9.06-36.59-9.06-32.97,0-58.59,11.38-76.86,34.15-18.28,22.76-27.42,54.95-27.42,96.57,0,45.53,9.14,79.68,27.42,102.44,18.27,22.76,45.53,34.15,81.76,34.15,15.5,0,29.17-1.51,41-4.53,11.83-3.02,21.5-5.59,29.01-7.71l19.09,42.59c-6.85,2.12-18.89,5.1-36.11,8.93-17.22,3.83-36.84,5.75-58.87,5.75ZM1317.46,628.71v-46.51h116.03v46.51h-116.03ZM1386.49,746.21v-164h48.47v164h-48.47Z"/>
    <path class="st5" d="M1501.05,756v-347.59h50.92v347.59h-50.92ZM1501.05,454.92v-46.51h230.1v46.51h-230.1ZM1501.05,605.21v-46.51h186.04v46.51h-186.04ZM1501.05,756v-46.51h230.1v46.51h-230.1Z"/>
    <path class="st5" d="M1791.85,756v-347.59h50.92v347.59h-50.92ZM1947.53,756l-99.87-264.36h-22.52v-83.23h32.31l99.87,264.37h12.24v83.23h-22.03ZM1962.22,756v-347.59h50.91v347.59h-50.91Z"/>
    <path class="st5" d="M2068.94,454.92v-46.51h254.57v46.51h-254.57ZM2170.77,756v-347.59h50.92v347.59h-50.92Z"/>
    <path class="st5" d="M2382.26,756v-347.59h50.92v347.59h-50.92ZM2382.26,454.92v-46.51h230.1v46.51h-230.1ZM2382.26,605.21v-46.51h186.04v46.51h-186.04ZM2382.26,756v-46.51h230.1v46.51h-230.1Z"/>
  </g>
  <path class="st2" d="M490.39,233.87c6.65,0,12.68,2.7,17.04,7.06l.16.17c4.27,4.35,6.9,10.31,6.9,16.87,0,5.2-1.66,10.03-4.48,13.98-2.63,3.69-6.28,6.6-10.52,8.34l-6.43,17.01c-.55,1.47-2.2,2.22-3.67,1.67-.8-.3-1.39-.92-1.67-1.67l-6.44-17.01c-4.24-1.73-7.88-4.65-10.52-8.34-2.82-3.95-4.48-8.78-4.48-13.98,0-6.65,2.7-12.67,7.06-17.03,4.37-4.37,10.4-7.07,17.04-7.07ZM382.94,309.03c-1.58,0-2.86-1.28-2.86-2.86s1.28-2.86,2.86-2.86h41.95l7.64-69.96c.17-1.56,1.57-2.7,3.14-2.53,1.56.17,2.7,1.57,2.53,3.14l-7.9,72.33c-.06,1.52-1.32,2.74-2.86,2.74h-44.51ZM450.97,235.37c.17-1.56,1.57-2.7,3.14-2.53,1.56.17,2.7,1.57,2.53,3.14l-7.35,67.34h99.47c1.58,0,2.86,1.28,2.86,2.86s-1.28,2.86-2.86,2.86l-102.95-.02c-1.56-.17-2.7-1.57-2.53-3.14,0,0,7.7-70.5,7.7-70.5ZM548.76,321.86c1.58,0,2.86,1.28,2.86,2.86s-1.28,2.86-2.86,2.86h-28.56v53.37c0,1.58-1.28,2.86-2.86,2.86s-2.86-1.28-2.86-2.86v-56.22c0-1.58,1.28-2.86,2.86-2.86,0,0,31.42,0,31.42,0ZM501.65,380.94c0,1.58-1.28,2.86-2.86,2.86s-2.86-1.28-2.86-2.86v-53.37h-49.29l-5.86,53.67c-.17,1.56-1.57,2.7-3.14,2.53s-2.7-1.57-2.53-3.14l6.12-56.04c.06-1.52,1.32-2.74,2.86-2.74h54.7c1.58,0,2.86,1.28,2.86,2.86v56.22ZM422.34,379.23c-.17,1.56-1.57,2.7-3.14,2.53s-2.7-1.57-2.53-3.14l5.58-51.05h-39.3c-1.58,0-2.86-1.28-2.86-2.86s1.28-2.86,2.86-2.86l42.78.02c1.56.17,2.7,1.57,2.53,3.14l-5.92,54.21ZM503.38,244.97c-3.32-3.32-7.92-5.38-13-5.38s-9.68,2.06-13,5.38c-3.32,3.32-5.38,7.92-5.38,13,0,3.98,1.26,7.67,3.4,10.67,2.2,3.08,5.34,5.46,9.01,6.72.77.27,1.43.87,1.74,1.7l4.23,11.17,4.16-11.01c.26-.84.9-1.55,1.8-1.86,3.66-1.26,6.81-3.64,9.01-6.72,2.14-3,3.4-6.69,3.4-10.67,0-5.01-2-9.55-5.24-12.87,0,0-.14-.13-.14-.13ZM490.39,246.56c3.14,0,5.99,1.28,8.05,3.34,2.07,2.08,3.35,4.93,3.35,8.06s-1.28,5.99-3.34,8.05c-2.08,2.07-4.92,3.35-8.06,3.35s-5.99-1.28-8.05-3.34c-2.07-2.08-3.35-4.93-3.35-8.06s1.28-5.99,3.34-8.05c2.08-2.07,4.93-3.35,8.06-3.35ZM494.41,253.94c-1.03-1.02-2.45-1.66-4.02-1.66s-3,.64-4.03,1.66c-1.02,1.03-1.66,2.45-1.66,4.03s.64,3,1.66,4.03c1.02,1.02,2.45,1.66,4.03,1.66s3-.63,4.02-1.66c1.02-1.02,1.66-2.45,1.66-4.03s-.63-3-1.66-4.03Z"/>
  <path class="st0" d="M312.73,669.72c-11.71,9-21.85,19.72-27.03,36.15-.46,1.45-2.01,2.26-3.47,1.81-1.45-.46-2.26-2.01-1.81-3.47,5.56-17.65,16.39-29.18,28.94-38.84-5.85-8.68-8.75-19.89-6.99-32.99,3.14-23.38,17.87-33.23,37.01-39.65,17.99-6.03,40.01-8.93,59.02-18.5.96-.48,2.1-.37,2.95.29.84.66,1.23,1.74,1,2.79-4.51,20-2.92,42.88-5.82,62.28-3.08,20.58-11.05,37.35-34.85,43.79-18.43,4.99-37.44-.58-48.96-13.64h.01ZM317.3,666.34c10.2,11.27,26.83,16.03,42.94,11.67,21.22-5.74,28.08-20.91,30.82-39.27,2.66-17.79,1.59-38.49,4.82-57.24-18.03,7.88-38.07,10.87-54.73,16.46-17.07,5.73-30.48,14.28-33.29,35.14-1.54,11.45.96,21.27,6.05,28.88,3.11-2.24,6.3-4.39,9.52-6.54-1.4-9.28-1.25-9.65-3.16-19.8-.28-1.5.71-2.95,2.21-3.23,1.5-.28,2.95.71,3.23,2.21,1.74,9.23,1.79,10.44,2.81,17.45,8.29-5.49,16.55-11.07,23.81-17.91-1.27-7.61-2.26-7.77-4.8-19.64-.32-1.49.63-2.97,2.12-3.29,1.49-.32,2.97.64,3.29,2.13,2.05,9.61,3.09,11.66,4.08,16.01,5.25-5.79,9.76-12.5,13.08-20.66.57-1.42,2.19-2.1,3.61-1.52,1.42.57,2.1,2.19,1.53,3.61-3.46,8.51-8.12,15.55-13.55,21.64,4.39.12,10.48.22,18.6-.56,1.52-.15,2.87.97,3.02,2.49.15,1.52-.97,2.87-2.49,3.02-12.6,1.22-20.33.32-24.37.46-6.88,6.53-14.6,11.98-22.44,17.23,7.79,1.2,11.27.73,22.12,2.44,1.51.24,2.54,1.65,2.3,3.17-.24,1.51-1.65,2.54-3.16,2.3-13.23-2.08-15.6-.98-27.92-3.48-3.38,2.25-6.75,4.5-10.03,6.85h0Z"/>
  <g>
    <circle class="st4" cx="353.56" cy="630.46" r="98.75"/>
    <circle class="st4" cx="164.45" cy="677.8" r="36.92"/>
    <circle class="st4" cx="83.87" cy="595.95" r="36.92"/>
    <circle class="st4" cx="532.81" cy="595.95" r="36.92"/>
    <circle class="st4" cx="83.87" cy="243.41" r="36.92"/>
    <circle class="st4" cx="298.89" cy="243.41" r="36.92"/>
    <g>
      <circle class="st4" cx="174.72" cy="433.09" r="98.75"/>
      <circle class="st3" cx="174.72" cy="417.27" r="36.92"/>
      <path class="st1" d="M231.31,514.54c0-32.37-26.24-58.61-58.61-58.61s-58.61,26.24-58.61,58.61"/>
      <circle class="st4" cx="174.72" cy="433.09" r="98.75"/>
    </g>
    <g>
      <circle class="st4" cx="470.98" cy="307.29" r="98.75"/>
      <circle class="st4" cx="470.98" cy="307.29" r="98.75"/>
    </g>
    <line class="st4" x1="98.2" y1="275.91" x2="128.35" y2="338.67"/>
    <line class="st4" x1="266.06" y1="395.49" x2="378.85" y2="348.46"/>
    <line class="st4" x1="385.41" y1="536.96" x2="434.2" y2="406.29"/>
    <line class="st4" x1="333.12" y1="253.86" x2="378.85" y2="273.24"/>
    <line class="st4" x1="496.58" y1="602.98" x2="450.57" y2="611.96"/>
    <line class="st4" x1="200.01" y1="667.9" x2="254.8" y2="653.48"/>
    <line class="st4" x1="102.2" y1="563.91" x2="123.76" y2="517.7"/>
  </g>
</svg>